<svg width="28" height="28" viewBox="0 0 28 28" fill="none" xmlns="http://www.w3.org/2000/svg">
<path d="M19.8335 10.5024C22.371 10.5164 23.7453 10.6296 24.6413 11.5256C25.6668 12.5511 25.6668 14.2008 25.6668 17.5001V18.6668C25.6668 21.9673 25.6668 23.6169 24.6413 24.6424C23.617 25.6668 21.9662 25.6668 18.6668 25.6668H9.3335C6.03416 25.6668 4.38333 25.6668 3.359 24.6424C2.3335 23.6158 2.3335 21.9673 2.3335 18.6668V17.5001C2.3335 14.2008 2.3335 12.5511 3.359 11.5256C4.255 10.6296 5.62933 10.5164 8.16683 10.5024" stroke="#FDB933" stroke-width="1.5" stroke-linecap="round"/>
<path d="M14 17.5002V2.3335M10.5 6.41683L14 2.3335L17.5 6.41683" stroke="#FDB933" stroke-width="1.5" stroke-linecap="round" stroke-linejoin="round"/>
</svg>
