<svg width="20" height="20" viewBox="0 0 20 20" fill="none" xmlns="http://www.w3.org/2000/svg">
<path d="M13.3337 8.33333C13.3337 6.49167 11.842 5 10.0003 5C8.15866 5 6.66699 6.49167 6.66699 8.33333C6.66699 10.175 8.15866 11.6667 10.0003 11.6667C11.842 11.6667 13.3337 10.175 13.3337 8.33333ZM8.33366 8.33333C8.33366 7.41667 9.08366 6.66667 10.0003 6.66667C10.917 6.66667 11.667 7.41667 11.667 8.33333C11.667 9.25 10.917 10 10.0003 10C9.08366 10 8.33366 9.25 8.33366 8.33333Z" fill="#007141"/>
<path d="M9.51642 18.175C9.65809 18.275 9.83309 18.3333 9.99975 18.3333C10.1664 18.3333 10.3414 18.2833 10.4831 18.175C10.7331 17.9917 16.6914 13.7 16.6664 8.32499C16.6664 4.64999 13.6748 1.65833 9.99975 1.65833C6.32475 1.65833 3.33309 4.64999 3.33309 8.32499C3.30809 13.6917 9.26642 17.9917 9.51642 18.175ZM9.99975 3.33333C12.7581 3.33333 14.9998 5.57499 14.9998 8.33333C15.0164 12.0333 11.3414 15.3583 9.99975 16.45C8.65809 15.3583 4.98309 12.0417 4.99975 8.33333C4.99975 5.57499 7.24142 3.33333 9.99975 3.33333Z" fill="#007141"/>
</svg>
