<svg width="24" height="24" viewBox="0 0 24 24" fill="none" xmlns="http://www.w3.org/2000/svg">
<path fill-rule="evenodd" clip-rule="evenodd" d="M4 12C4.00014 10.4604 4.44451 8.95361 5.27979 7.66035C6.11506 6.36709 7.30576 5.34231 8.70901 4.70898C10.1123 4.07565 11.6684 3.86067 13.1908 4.08984C14.7132 4.31901 16.1372 4.98259 17.2918 6.00096C18.4464 7.01933 19.2826 8.34923 19.7002 9.83108C20.1177 11.3129 20.0988 12.8838 19.6457 14.3551C19.1926 15.8265 18.3246 17.1359 17.1458 18.1262C15.967 19.1164 14.5275 19.7455 13 19.938V14H15C15.2652 14 15.5196 13.8946 15.7071 13.7071C15.8946 13.5195 16 13.2652 16 13C16 12.7348 15.8946 12.4804 15.7071 12.2929C15.5196 12.1053 15.2652 12 15 12H13V9.99997C13 9.73475 13.1054 9.4804 13.2929 9.29286C13.4804 9.10533 13.7348 8.99997 14 8.99997H14.5C14.7652 8.99997 15.0196 8.89461 15.2071 8.70708C15.3946 8.51954 15.5 8.26519 15.5 7.99997C15.5 7.73475 15.3946 7.4804 15.2071 7.29286C15.0196 7.10533 14.7652 6.99997 14.5 6.99997H14C13.2044 6.99997 12.4413 7.31604 11.8787 7.87865C11.3161 8.44126 11 9.20432 11 9.99997V12H9C8.73478 12 8.48043 12.1053 8.29289 12.2929C8.10536 12.4804 8 12.7348 8 13C8 13.2652 8.10536 13.5195 8.29289 13.7071C8.48043 13.8946 8.73478 14 9 14H11V19.938C9.06661 19.6944 7.28861 18.7535 5.99975 17.2919C4.7109 15.8304 3.99982 13.9486 4 12ZM12 22C17.523 22 22 17.523 22 12C22 6.47697 17.523 1.99997 12 1.99997C6.477 1.99997 2 6.47697 2 12C2 17.523 6.477 22 12 22Z" fill="#F0B93C"/>
</svg>
