<svg width="28" height="28" viewBox="0 0 28 28" fill="none" xmlns="http://www.w3.org/2000/svg">
<path fill-rule="evenodd" clip-rule="evenodd" d="M20.4784 18.7904C20.7339 18.6626 21.0274 18.6329 21.3033 18.7071C21.5792 18.7813 21.8183 18.9541 21.9752 19.1929L22.0429 19.3119L24.3762 23.9785C24.4595 24.145 24.5017 24.3289 24.4994 24.515C24.4971 24.701 24.4503 24.8838 24.363 25.0481C24.2756 25.2125 24.1502 25.3535 23.9973 25.4595C23.8443 25.5654 23.6682 25.6333 23.4837 25.6574L23.3332 25.6667H4.66655C4.48044 25.6668 4.297 25.6223 4.13158 25.537C3.96615 25.4517 3.82352 25.3281 3.71562 25.1765C3.60771 25.0248 3.53764 24.8496 3.51128 24.6653C3.48491 24.4811 3.50301 24.2932 3.56405 24.1174L3.62239 23.9774L5.95572 19.3107C6.0865 19.0404 6.31648 18.8309 6.5978 18.7258C6.87912 18.6208 7.19012 18.6283 7.46607 18.7467C7.74203 18.8651 7.96169 19.0854 8.07934 19.3617C8.19699 19.638 8.20357 19.949 8.09772 20.23L8.04289 20.3549L6.55422 23.3334H21.4456L19.9569 20.3549C19.8187 20.0782 19.7961 19.758 19.8938 19.4647C19.9916 19.1713 20.2019 18.9288 20.4784 18.7904ZM13.9999 2.33337C16.1658 2.33337 18.243 3.19379 19.7746 4.72533C21.3061 6.25688 22.1666 8.33411 22.1666 10.5C22.1666 13.279 20.6627 15.5365 19.1064 17.1384C18.2468 18.0117 17.3017 18.7965 16.2854 19.481L15.8502 19.768L15.4629 20.0119L15.2891 20.1169L14.9892 20.2895C14.3732 20.6395 13.6266 20.6395 13.0106 20.2895L12.7107 20.1157L12.3491 19.8952L12.1496 19.768L11.7144 19.481C10.6981 18.7965 9.75299 18.0117 8.89339 17.1384C7.33705 15.5365 5.83322 13.279 5.83322 10.5C5.83322 8.33411 6.69363 6.25688 8.22518 4.72533C9.75673 3.19379 11.834 2.33337 13.9999 2.33337ZM13.9999 4.66671C12.4528 4.66671 10.9691 5.28129 9.8751 6.37525C8.78114 7.46921 8.16655 8.95294 8.16655 10.5C8.16655 12.4087 9.20489 14.1109 10.5664 15.512C11.3853 16.3392 12.2904 17.0764 13.2661 17.7112L13.6627 17.9644C13.7856 18.0398 13.898 18.1075 13.9999 18.1674L14.3382 17.9644L14.7337 17.7112C15.7094 17.0764 16.6144 16.3392 17.4334 15.512C18.7949 14.112 19.8332 12.4087 19.8332 10.5C19.8332 8.95294 19.2186 7.46921 18.1247 6.37525C17.0307 5.28129 15.547 4.66671 13.9999 4.66671ZM13.9999 7.00004C14.9281 7.00004 15.8184 7.36879 16.4748 8.02517C17.1311 8.68154 17.4999 9.57178 17.4999 10.5C17.4999 11.4283 17.1311 12.3185 16.4748 12.9749C15.8184 13.6313 14.9281 14 13.9999 14C13.0716 14 12.1814 13.6313 11.525 12.9749C10.8686 12.3185 10.4999 11.4283 10.4999 10.5C10.4999 9.57178 10.8686 8.68154 11.525 8.02517C12.1814 7.36879 13.0716 7.00004 13.9999 7.00004ZM13.9999 9.33337C13.6905 9.33337 13.3937 9.45629 13.1749 9.67508C12.9561 9.89387 12.8332 10.1906 12.8332 10.5C12.8332 10.8095 12.9561 11.1062 13.1749 11.325C13.3937 11.5438 13.6905 11.6667 13.9999 11.6667C14.3093 11.6667 14.6061 11.5438 14.8248 11.325C15.0436 11.1062 15.1666 10.8095 15.1666 10.5C15.1666 10.1906 15.0436 9.89387 14.8248 9.67508C14.6061 9.45629 14.3093 9.33337 13.9999 9.33337Z" fill="#007141"/>
</svg>
