<svg width="16" height="16" viewBox="0 0 16 16" fill="none" xmlns="http://www.w3.org/2000/svg">
<path d="M11.7545 3.20597C13.8545 5.27131 13.8545 8.57664 11.7825 10.6146L8.00183 14.3333L4.21983 10.6146C3.72797 10.134 3.33714 9.55998 3.07031 8.92618C2.80347 8.29239 2.66602 7.61165 2.66602 6.92397C2.66602 6.2363 2.80347 5.55556 3.07031 4.92176C3.33714 4.28797 3.72797 3.7139 4.21983 3.23331L4.24783 3.20597C5.24794 2.21961 6.59615 1.66663 8.00083 1.66663C9.40551 1.66663 10.7544 2.21961 11.7545 3.20597ZM11.7545 3.20597C11.7265 3.17797 11.7265 3.17797 11.7545 3.20597ZM9.33316 6.33331C9.33316 6.68693 9.19269 7.02607 8.94264 7.27612C8.69259 7.52616 8.35345 7.66664 7.99983 7.66664C7.64621 7.66664 7.30707 7.52616 7.05702 7.27612C6.80697 7.02607 6.6665 6.68693 6.6665 6.33331C6.6665 5.97968 6.80697 5.64055 7.05702 5.3905C7.30707 5.14045 7.64621 4.99997 7.99983 4.99997C8.35345 4.99997 8.69259 5.14045 8.94264 5.3905C9.19269 5.64055 9.33316 5.97968 9.33316 6.33331Z" stroke="#1B1C1C" stroke-width="1.5" stroke-miterlimit="10" stroke-linecap="round" stroke-linejoin="round"/>
</svg>
